<svg xmlns="http://www.w3.org/2000/svg" viewBox="0 0 671.49 470.81"><defs><style>.cls-1{fill:#77727a;}.cls-2{fill:#2b2f77;}.cls-3{fill:#fff;}.cls-4{font-size:80.96px;fill:#65afcd;font-family:DelaGothicOne-Regular, DelaGothicOne Regular;}.cls-5{font-size:33.36px;fill:#bfbf58;font-family:Montserrat-Bold, Montserrat;font-weight:700;}.cls-6{fill:#bfbf38;}</style></defs><g id="OBJECTS"><path class="cls-1" d="M556.55,258.55a32.41,32.41,0,0,1,6,25.06l-2.8-.43-14.22-2.24c-10.09-1.36-21.21-2.5-32.14-3.86-6.23-.63-12.55-1.12-18.76-1.59,1.44-18.52,19.07-32.62,38.65-30a37,37,0,0,1,13.45,4.24A33.58,33.58,0,0,1,556.55,258.55Z" transform="translate(-29.47 -15.04)"/><path class="cls-1" d="M620.72,194.64l-21.11,68.89-8,25.92s0,0,0,0l-2.92-.68-1.71-.41-1.21-.29h0c1.75-8,2.6-16,1.11-23.53a54.61,54.61,0,0,0-8.67-21.05c-4.34-6.41-10.57-11.6-17.58-15.83a57.16,57.16,0,0,0-11.4-5.23,72.09,72.09,0,0,0-12.86-2.73c-9-1-17.55-.58-25.66,1.89A64.84,64.84,0,0,0,489,232.74a55.42,55.42,0,0,0-21.39,40.65v0c-5.87-.31-11.45-.5-16.52-.7l-12.15-.5h-.12l-1.5-.06-.38,0-.86,0-.48,0-1.9-.08-.83,0-.61,0-1.39-.06-1.26,0-.71,0-1.22-.05-1.7-.07h-.06l-.35,0-3.19-.13v0l5.36-206.08,19.07.78L465.7,67l13.94.57c4.47.27,8.69.66,12.29.91,7.21.56,12,1,12,1,6.16,8.34,22.9,30.94,37.45,52.83,7.27,10.81,14,21.07,18.86,28.66,4.93,7.74,8.1,12.87,8.45,13l8.39,4.5c5,2.67,11.66,6.22,18.19,10.18,6.54,3.81,13,7.67,17.69,10.83C617.7,192.43,620.72,194.64,620.72,194.64Z" transform="translate(-29.47 -15.04)"/><path class="cls-2" d="M279.55,274.35v0c-16.4,1.15-32.83,2-47.74,3.91l-22.74,2.44c-2.44-18.46,11.82-35.19,31.79-37.37C261,241.66,278.46,255.84,279.55,274.35Z" transform="translate(-29.47 -15.04)"/><path class="cls-2" d="M448.78,15l-2,51.18-7.87,206h-.12l-1.5-.06-1.72-.07-1.9-.08-.83,0-2-.08-1.26,0-.71,0-1.22-.05-1.7-.07h-.06c-1.11-.08-2.29-.13-3.54-.18-7.94-.3-18.58-.14-30.9-.24-23.45-.39-53.5.24-84.43,1.58v-.09a55.82,55.82,0,0,0-21-41.16,67.27,67.27,0,0,0-47.55-14.06A70.32,70.32,0,0,0,213.63,225,56.62,56.62,0,0,0,183,284.49c-2.52.38-5,.73-7.32,1.07-3,.48-5.7,1.07-8.32,1.54l-13.44,2.54c-3.85.65-6.31,1.37-8.2,1.77s-2.81.66-2.81.66l0-.09c-.35-1.06-3.78-11.26-9.18-26.51-.53-1.51-1.09-3.08-1.66-4.69-6.68-18.72-15.88-43.74-25.77-68.29s-20.9-48.91-29.58-67c-4.91-8.84-9.47-16-12.71-21l-5.19-7.82c6.18-2.3,31.75-13,68.55-24,9.39-3,19-5.55,29.38-8.36s21.41-5.92,32.43-8.32l34.44-7.94c11.7-2.53,23.4-4.62,35.26-7q8.88-1.73,17.74-3.4l8.85-1.7c2.91-.45,5.81-.92,8.7-1.39l34-5.31c11.05-1.62,21.75-3.55,31.93-4.73s19.82-2.38,28.72-3.43,17.1-2,24.35-2.87l10.18-1.21c3.2-.24,6.14-.49,8.78-.71Z" transform="translate(-29.47 -15.04)"/><path class="cls-3" d="M409.68,48.42s-4.47,0-11.17.37l-11.45.54c-4.19.25-8.71.7-13.2,1.06s-9,.92-13.27,1.44l-6.12.77-5.56.9c-3.43.56-6.28,1-8.35,1.47l-3.21.65,3.56-1.12c2.3-.78,5.44-1.56,9.3-2.64s8.29-2.12,13.08-3.25,9.87-2.13,15-3.13L385.87,44l7.34-1.17c4.77-.74,9.24-1.49,13.08-2l12.83-1.56-.6,52.37s-2-10.8-4.23-21.6S409.68,48.42,409.68,48.42Z" transform="translate(-29.47 -15.04)"/><path class="cls-2" d="M562.51,283.61h0a35.66,35.66,0,0,1-13.24,22.07,33.6,33.6,0,0,1-24.15,6.75c-9.12-1-16.67-6-22.46-12.4a33.4,33.4,0,0,1-8.07-24.55c1.44-18.52,19.07-32.62,38.65-30a37,37,0,0,1,13.45,4.24,33.58,33.58,0,0,1,9.86,8.86A32.41,32.41,0,0,1,562.51,283.61Z" transform="translate(-29.47 -15.04)"/><path class="cls-2" d="M247.09,310.54a34.76,34.76,0,0,1-38-29.81h0c-2.44-18.46,11.82-35.19,31.79-37.37,20.14-1.69,37.6,12.49,38.69,31v0C280.7,293,266,309,247.09,310.54Z" transform="translate(-29.47 -15.04)"/><path class="cls-1" d="M593,260.27a121.22,121.22,0,0,1-4.26,16.34c-.32,1-.61,2.12-.91,3.23a26.14,26.14,0,0,1-.45,4.63c-.14,1.19-.32,2.38-.55,3.55l.25.44s76.2,16,113.92,44.84C701,333.3,648.16,286.42,593,260.27Z" transform="translate(-29.47 -15.04)"/><path class="cls-2" d="M143.39,291.86s-76.2,16-113.92,44.84c0,0,72.35-64.29,136.24-84.3Z" transform="translate(-29.47 -15.04)"/><text class="cls-4" transform="translate(103.26 417.63) rotate(-7.84)">7</text><text class="cls-4" transform="translate(147.1 411.69) rotate(-6.36)">J</text><text class="cls-4" transform="translate(178.46 408.2) rotate(-5.27)">/</text><text class="cls-4" transform="matrix(1, -0.07, 0.07, 1, 208.87, 405.32)">7</text><text class="cls-4" transform="translate(253.11 402.32) rotate(-2.99)"> </text><text class="cls-4" transform="translate(271.79 401.35) rotate(-2.39)"> </text><text class="cls-4" transform="matrix(1, -0.03, 0.03, 1, 290.47, 400.57)"> </text><text class="cls-4" transform="translate(309.2 399.98) rotate(-1.18)"> </text><text class="cls-4" transform="translate(327.89 399.59) rotate(-0.58)"> </text><text class="cls-4" transform="translate(346.49 399.29) rotate(0.44)">2</text><text class="cls-4" transform="translate(390.74 399.62) rotate(1.92)">4</text><text class="cls-4" transform="matrix(1, 0.06, -0.06, 1, 434.9, 400.99)">H</text><text class="cls-4" transform="translate(491.02 404.79) rotate(5.36)">/</text><text class="cls-4" transform="translate(521.36 407.52) rotate(6.94)">2</text><text class="cls-4" transform="matrix(0.99, 0.16, -0.16, 0.99, 565.12, 412.81)">4</text><text class="cls-5" transform="translate(164.73 454.17) rotate(-5.67)">I</text><text class="cls-5" transform="translate(185.48 452.15) rotate(-4.74)">S</text><text class="cls-5" transform="translate(216.55 449.67) rotate(-3.65)">E</text><text class="cls-5" transform="translate(248.78 447.7) rotate(-2.52)">R</text><text class="cls-5" transform="translate(283.18 446.3) rotate(-1.4)">E</text><text class="cls-5" transform="translate(315.48 445.64) rotate(-0.53)"> </text><text class="cls-5" transform="translate(334.85 445.51) rotate(0.16)">/</text><text class="cls-5" transform="translate(357.18 445.62) rotate(1.1)">S</text><text class="cls-5" transform="translate(388.35 446.3) rotate(2.28)">A</text><text class="cls-5" transform="translate(422.47 447.75) rotate(3.53)">V</text><text class="cls-5" transform="translate(456.4 449.94) rotate(4.93)">O</text><text class="cls-5" transform="matrix(0.99, 0.11, -0.11, 0.99, 494.28, 453.4)">I</text><text class="cls-5" transform="translate(514.97 455.68) rotate(7.4)">E</text><path class="cls-6" d="M300,118.63l-3.49-27.52s-4.23-33.26-37.54-29-29.11,37.47-29.11,37.47l3.48,27.54a11.37,11.37,0,0,0-5.25,11l5.72,45a11.34,11.34,0,0,0,12.67,9.83l57.19-7.22A11.36,11.36,0,0,0,313.48,173l-5.69-45A11.38,11.38,0,0,0,300,118.63Zm-21.2,52.68L267,172.81l-.94-20a7.42,7.42,0,0,1-3.91-5.72,7.56,7.56,0,1,1,12.45,4.77Zm2.56-75.92,3.05,24.14-35.77,4.52-3.07-24.14s-4-20.29,15.22-22.73S281.36,95.39,281.36,95.39Z" transform="translate(-29.47 -15.04)"/></g></svg>